<svg width="67" height="60" viewBox="0 0 67 60" fill="none" xmlns="http://www.w3.org/2000/svg">
<path fill-rule="evenodd" clip-rule="evenodd" d="M13.6218 60C12.5848 60 11.7996 59.063 11.9808 58.042L14 46.6667H2.65028C1.61488 46.6667 0.830084 45.7327 1.00855 44.7127L1.59188 41.3793C1.73145 40.582 2.42398 40 3.23362 40H15.1666L18.7 20H7.35028C6.31488 20 5.53008 19.0659 5.70855 18.046L6.29188 14.7127C6.43145 13.9152 7.12398 13.3333 7.93362 13.3333H19.8666L21.9891 1.3754C22.1304 0.5797 22.8221 0 23.6301 0H26.9114C27.9483 0 28.7336 0.9369 28.5523 1.95793L26.5333 13.3333H46.5333L48.6559 1.3754C48.7969 0.5797 49.4886 0 50.2969 0H53.5779C54.6149 0 55.4003 0.9369 55.2189 1.95793L53.1999 13.3333H64.5496C65.5849 13.3333 66.3699 14.2674 66.1913 15.2873L65.6079 18.6206C65.4686 19.4181 64.7759 20 63.9663 20H52.0333L48.4999 40H59.8496C60.8849 40 61.6699 40.934 61.4913 41.954L60.9079 45.2873C60.7686 46.0847 60.0759 46.6667 59.2663 46.6667H47.3333L45.2106 58.6247C45.0696 59.4203 44.3779 60 43.5696 60H40.2886C39.2516 60 38.4663 59.063 38.6476 58.042L40.6666 46.6667H20.6666L18.5441 58.6247C18.4029 59.4203 17.7112 60 16.9031 60H13.6218ZM25.3681 20L21.8347 40H41.8346L45.3679 20H25.3681Z" fill="#FEC400"/>
</svg>
