<?xml version="1.0" encoding="utf-8"?>
<!-- Generator: Adobe Illustrator 25.2.0, SVG Export Plug-In . SVG Version: 6.00 Build 0)  -->
<svg version="1.1" id="Layer_1" xmlns="http://www.w3.org/2000/svg" xmlns:xlink="http://www.w3.org/1999/xlink" x="0px" y="0px"
	 viewBox="0 0 24.2 26.9" style="enable-background:new 0 0 24.2 26.9;" xml:space="preserve">
<style type="text/css">
	.st0{fill:none;stroke:#FEC400;stroke-width:0.94;stroke-linecap:round;stroke-linejoin:round;}
</style>
<g id="Layer_2_1_">
	<g id="Layer_1-2">
		<path class="st0" d="M12.1,0.5C5.7,0.5,0.5,2,0.5,4s5.2,3.5,11.6,3.5S23.7,5.9,23.7,4S18.5,0.5,12.1,0.5z"/>
		<path class="st0" d="M0.5,4v6.3c0,1.9,5.2,3.5,11.6,3.5s11.6-1.6,11.6-3.5V4 M0.5,10.3v6.3c0,1.9,5.2,3.5,11.6,3.5
			s11.6-1.6,11.6-3.5v-6.3 M0.5,16.6v6.3c0,1.9,5.2,3.5,11.6,3.5s11.6-1.6,11.6-3.5v-6.3"/>
		<path class="st0" d="M19.2,9.7L17.9,10 M19.3,16.3L18,16.5 M19.4,22.7L18.1,23"/>
	</g>
</g>
</svg>
