<svg xmlns="http://www.w3.org/2000/svg" viewBox="0 0 521.33 609.97"><defs><style>.cls-1{fill:#fec400;}</style></defs><g id="Layer_2" data-name="Layer 2"><g id="Layer_1-2" data-name="Layer 1"><path class="cls-1" d="M57.22,110.44l2.11,254q10.9,50.61,60.68,95.66Q170.68,506,260.84,545.78q70.52-29.38,121.14-75a358.8,358.8,0,0,0,82.19-108.9L460,110.53a437.25,437.25,0,0,0-402.76-.09"/><path class="cls-1" d="M35.06,89.41l2.36,281.64q12.12,56.08,67.29,106.11,56.16,50.88,156.15,95Q339,539.53,395.19,489A397.13,397.13,0,0,0,486.3,368.26L481.68,89.55a484.75,484.75,0,0,0-446.62-.14M2.58,373.17.12,79.11,0,68.67l9.19-5a519,519,0,0,1,498.09,0l8.93,4.86.17,10.21,4.88,293.14.07,4.19-1.78,3.7a431.79,431.79,0,0,1-101,135.17q-63,56.8-151.38,92.35L260.5,610l-6.71-2.89Q143.63,559.44,81.33,503,16.91,444.68,2.91,376.49L2.6,374.9Z"/></g></g></svg>